<svg viewBox="0 0 393 852" fill="none" xmlns="http://www.w3.org/2000/svg" preserveAspectRatio="none">
<rect width="393" height="852" fill="url(#paint0_radial_2546_679)"/>
<g clip-path="url(#clip0_2546_679)">
<path d="M101.877 451.792H97.5124L101.531 426.55H90L90.7004 422.142H118.178L117.477 426.55H105.892L101.873 451.792H101.877Z" fill="white"/>
<path d="M126.153 451.792C125.144 451.792 124.202 451.609 123.331 451.24C122.459 450.874 121.721 450.359 121.117 449.702C120.517 449.046 120.079 448.273 119.808 447.38C119.537 446.49 119.495 445.506 119.691 444.421L123.243 422.138H127.666L124.114 444.421C123.998 445.236 124.202 445.93 124.727 446.511C125.252 447.093 125.957 447.38 126.853 447.38H141.465C142.358 447.38 143.175 447.089 143.913 446.511C144.651 445.93 145.076 445.236 145.193 444.421L148.744 422.138H153.168L149.616 444.421C149.42 445.506 149.045 446.49 148.482 447.38C147.919 448.269 147.231 449.042 146.414 449.702C145.601 450.359 144.705 450.874 143.738 451.24C142.766 451.609 141.778 451.792 140.769 451.792H126.157H126.153Z" fill="white"/>
<path d="M242.938 451.792C222.526 451.589 211.529 438.081 211.529 422.229V400.183H222.689C243.1 400.345 254.098 413.853 254.098 429.704V451.788H242.938V451.792ZM242.938 441.475V430.677C242.938 414.459 231.048 410.496 222.689 410.496V421.294C222.689 437.474 234.621 441.475 242.938 441.475Z" fill="white"/>
<path d="M187.766 410.462H207.631V400H187.766C172.291 400 164.111 409.004 164.111 426.039C164.111 443.075 172.291 452.004 187.766 452.004H211.529V441.542H187.766C178.419 441.542 174.609 437.05 174.609 426.039C174.609 415.029 178.419 410.462 187.766 410.462Z" fill="white"/>
<path d="M225.036 452H211.529V441.538C211.529 441.538 214.997 449.154 225.036 452Z" fill="white"/>
<path d="M240.036 400.386H254.094V410.209C254.094 410.209 250.071 403.233 240.036 400.386Z" fill="white"/>
<path d="M287.629 400.386H254.098V410.209H287.629C296.213 410.209 296.213 423.281 287.629 423.281H274.355C274.005 423.281 273.659 423.293 273.317 423.318C273.217 423.322 273.121 423.33 273.025 423.339C272.762 423.36 272.495 423.389 272.237 423.422C272.154 423.434 272.066 423.443 271.983 423.455C271.649 423.505 271.32 423.559 270.995 423.625C270.932 423.638 270.874 423.655 270.815 423.667C270.544 423.725 270.278 423.792 270.011 423.866C269.915 423.891 269.823 423.916 269.731 423.945C269.465 424.024 269.202 424.107 268.943 424.199C268.889 424.22 268.835 424.236 268.781 424.253C268.472 424.365 268.168 424.486 267.868 424.614C267.793 424.648 267.718 424.681 267.643 424.714C267.409 424.818 267.18 424.926 266.951 425.042C266.872 425.084 266.788 425.121 266.709 425.167C266.421 425.321 266.134 425.474 265.858 425.645C265.858 425.645 265.854 425.645 265.85 425.649C265.575 425.815 265.304 425.994 265.041 426.177C264.966 426.227 264.895 426.281 264.825 426.33C264.616 426.48 264.412 426.634 264.212 426.792C264.153 426.837 264.091 426.883 264.032 426.933C263.782 427.136 263.536 427.348 263.299 427.564C263.257 427.602 263.22 427.643 263.178 427.681C262.978 427.868 262.786 428.055 262.598 428.25C262.536 428.312 262.473 428.379 262.415 428.445C262.223 428.649 262.036 428.857 261.856 429.073C261.827 429.106 261.794 429.143 261.765 429.177C261.556 429.426 261.356 429.683 261.164 429.945C261.118 430.008 261.077 430.07 261.031 430.132C260.881 430.34 260.735 430.556 260.597 430.772C260.551 430.843 260.506 430.913 260.46 430.984C258.901 433.485 257.996 436.435 257.996 439.606V451.809H267.851V439.606C267.851 436.041 270.711 433.111 274.367 433.111H289.551C297.738 432.16 304.017 425.109 304.017 416.712C304.017 407.679 296.704 400.391 287.641 400.391L287.629 400.386Z" fill="white"/>
</g>
<defs>
<radialGradient id="paint0_radial_2546_679" cx="0" cy="0" r="1" gradientUnits="userSpaceOnUse" gradientTransform="translate(393 1.945e-05) rotate(108.612) scale(614.117 283.272)">
<stop stop-color="#2F4ACD"/>
<stop offset="1" stop-color="#0D0D0D"/>
</radialGradient>
<clipPath id="clip0_2546_679">
<rect width="214" height="52" fill="white" transform="translate(90 400)"/>
</clipPath>
</defs>
</svg>
